<svg xmlns="http://www.w3.org/2000/svg" width="19" height="24" viewBox="0 0 19 24">
    <g fill="#8B92A6" fill-rule="evenodd">
        <path d="M18.933 20.074L17.3 17.236A8.711 8.711 0 0 1 16.15 12.9v-2.487c0-3.138-2.007-5.793-4.75-6.649v-1.78C11.4.89 10.548 0 9.5 0S7.6.89 7.6 1.983v1.78c-2.744.856-4.75 3.51-4.75 6.65v2.486a8.717 8.717 0 0 1-1.151 4.336L.068 20.073a.514.514 0 0 0-.006.5.47.47 0 0 0 .412.252h18.051a.473.473 0 0 0 .413-.25.517.517 0 0 0-.005-.5zM6.333 22.015a3.202 3.202 0 0 0 2.88 1.785 3.202 3.202 0 0 0 2.878-1.785H6.333z"/>
    </g>
</svg>
